<svg xmlns="http://www.w3.org/2000/svg" version="1.1" xmlns:xlink="http://www.w3.org/1999/xlink" xmlns:svgjs="http://svgjs.dev/svgjs" width="100%" height="100%" viewBox="0 0 1000 600"><rect width="1000" height="600" x="0" y="0" fill="#0459c7"/><g><circle r="166.66666666666666" cx="331.34499613444007" cy="353.56721495586135" fill="#c5fad5" transform="matrix(0.759055479987695,0,0,0.7590554799876953,0,31.622848686045558)"/><path d="M253.6820939627731 428.56721553941287L244.13153325663072 428.56721553941287L244.13153325663072 278.5672326841177L253.6820939627731 278.5672326841177L253.6820939627731 428.56721553941287ZM317.90680572313767 396.52227538186224L278.10905746295373 396.52227538186224L278.10905746295373 391.8256467051945Q284.0865848696217 391.8256467051945 286.69332614471 391.1739613864225Q289.2775955122544 390.5447479751943 289.92928083102646 388.589692018878Q290.55849424225465 386.65710797010576 290.55849424225465 382.7694679650172L290.55849424225465 382.7694679650172L290.55849424225465 303.6458815030704Q290.55849424225465 299.7582414979819 289.92928083102646 297.82565744920953Q289.2775955122544 295.8930734004372 286.69332614471 295.1515004514897Q284.0865848696217 294.4323994100861 278.10905746295373 294.4323994100861L278.10905746295373 294.4323994100861L278.10905746295373 289.73577073341835L317.90680572313767 289.73577073341835L317.90680572313767 294.4323994100861Q312.08658166927677 294.4323994100861 309.4124246715569 295.1515004514897Q306.7382676738371 295.8930734004372 306.1090542626089 297.82565744920953Q305.4573689438368 299.7582414979819 305.4573689438368 303.6458815030704L305.4573689438368 303.6458815030704L305.4573689438368 337.7807090622005L357.54725063051455 337.7807090622005L357.54725063051455 303.6458815030704Q357.54725063051455 299.7582414979819 356.8955653117425 297.82565744920953Q356.2663519005143 295.8930734004372 353.659610625426 295.1515004514897Q351.0753412578816 294.4323994100861 345.0978138512137 294.4323994100861L345.0978138512137 294.4323994100861L345.0978138512137 289.73577073341835L384.89556211139757 289.73577073341835L384.89556211139757 294.4323994100861Q379.07533805753667 294.4323994100861 376.40118105981685 295.1515004514897Q373.727024062097 295.8930734004372 373.0753387433249 297.82565744920953Q372.4461253320967 299.7582414979819 372.4461253320967 303.6458815030704L372.4461253320967 303.6458815030704L372.4461253320967 382.7694679650172Q372.4461253320967 386.65710797010576 373.16522637350033 388.589692018878Q373.88432741490396 390.5447479751943 376.4910686899923 391.1739613864225Q379.07533805753667 391.8256467051945 384.89556211139757 391.8256467051945L384.89556211139757 391.8256467051945L384.89556211139757 396.52227538186224L345.0978138512137 396.52227538186224L345.0978138512137 391.8256467051945Q351.0753412578816 391.8256467051945 353.659610625426 391.1739613864225Q356.2663519005143 390.5447479751943 356.8955653117425 388.589692018878Q357.54725063051455 386.65710797010576 357.54725063051455 382.7694679650172L357.54725063051455 382.7694679650172L357.54725063051455 343.93801172921945L305.4573689438368 343.93801172921945L305.4573689438368 382.7694679650172Q305.4573689438368 386.65710797010576 306.1090542626089 388.589692018878Q306.7382676738371 390.5447479751943 309.4124246715569 391.1739613864225Q312.08658166927677 391.8256467051945 317.90680572313767 391.8256467051945L317.90680572313767 391.8256467051945L317.90680572313767 396.52227538186224ZM418.55847961210645 428.56721553941287L409.0079189059641 428.56721553941287L409.0079189059641 278.5672326841177L418.55847961210645 278.5672326841177L418.55847961210645 428.56721553941287Z " fill="#0459c7" transform="matrix(0.759055479987695,0,0,0.7590554799876953,0,31.622848686045558)"/><path d="M636.3336207392621 426.114302373347L581.3450114509213 426.114302373347L581.3450114509213 419.62496338900866Q589.604170158261 419.62496338900866 593.205908541913 418.72452879309566Q596.7765974567403 417.85514366600734 597.6770320526532 415.15383987826834Q598.5464171797416 412.483585559354 598.5464171797416 407.1120274527007L598.5464171797416 407.1120274527007L598.5464171797416 297.7868477213357Q598.5464171797416 292.41528961468237 597.6770320526532 289.74503529576805Q596.7765974567403 287.0747809768537 593.205908541913 286.05014850564237Q589.604170158261 285.0565655032557 581.3450114509213 285.0565655032557L581.3450114509213 285.0565655032557L581.3450114509213 278.5672265189173L636.3336207392621 278.5672265189173L636.3336207392621 285.0565655032557Q628.2918083136944 285.0565655032557 624.5969215235688 286.05014850564237Q620.9020347334431 287.0747809768537 620.0326496063547 289.74503529576805Q619.1322150104418 292.41528961468237 619.1322150104418 297.7868477213357L619.1322150104418 297.7868477213357L619.1322150104418 344.9509908658808L691.1048837458306 344.9509908658808L691.1048837458306 297.7868477213357Q691.1048837458306 292.41528961468237 690.2044491499177 289.74503529576805Q689.3350640228293 287.0747809768537 685.7333256391773 286.05014850564237Q682.16263672435 285.0565655032557 673.9034780170103 285.0565655032557L673.9034780170103 285.0565655032557L673.9034780170103 278.5672265189173L728.8920873053511 278.5672265189173L728.8920873053511 285.0565655032557Q720.8502748797835 285.0565655032557 717.1553880896578 286.05014850564237Q713.4605012995321 287.0747809768537 712.5600667036192 289.74503529576805Q711.6906815765308 292.41528961468237 711.6906815765308 297.7868477213357L711.6906815765308 297.7868477213357L711.6906815765308 407.1120274527007Q711.6906815765308 412.483585559354 712.6842645789175 415.15383987826834Q713.6778475813041 417.85514366600734 717.2795859649561 418.72452879309566Q720.8502748797835 419.62496338900866 728.8920873053511 419.62496338900866L728.8920873053511 419.62496338900866L728.8920873053511 426.114302373347L673.9034780170103 426.114302373347L673.9034780170103 419.62496338900866Q682.16263672435 419.62496338900866 685.7333256391773 418.72452879309566Q689.3350640228293 417.85514366600734 690.2044491499177 415.15383987826834Q691.1048837458306 412.483585559354 691.1048837458306 407.1120274527007L691.1048837458306 407.1120274527007L691.1048837458306 353.4585453238172L619.1322150104418 353.4585453238172L619.1322150104418 407.1120274527007Q619.1322150104418 412.483585559354 620.0326496063547 415.15383987826834Q620.9020347334431 417.85514366600734 624.5969215235688 418.72452879309566Q628.2918083136944 419.62496338900866 636.3336207392621 419.62496338900866L636.3336207392621 419.62496338900866L636.3336207392621 426.114302373347ZM799.3122825995107 428.5672104104893L799.3122825995107 428.5672104104893Q774.503757008667 428.5672104104893 762.5497115112016 414.5949494394259Q750.5646165449116 400.62268846836247 750.5646165449116 373.7959474039207L750.5646165449116 373.7959474039207Q750.5646165449116 347.186552621251 762.5497115112016 332.9969453684154Q774.503757008667 318.80733811557997 799.3122825995107 318.80733811557997L799.3122825995107 318.80733811557997Q824.1208081903544 318.80733811557997 836.0748536878198 332.90379696194174Q848.0599486541098 346.96920633947894 848.0599486541098 373.57860112214854L848.0599486541098 373.57860112214854Q848.0599486541098 400.62268846836247 836.0748536878198 414.5949494394259Q824.1208081903544 428.5672104104893 799.3122825995107 428.5672104104893ZM799.3122825995107 421.42583258083465L799.3122825995107 421.42583258083465Q813.8434340094167 421.42583258083465 820.4259214002287 409.0060450510005Q827.0394582598655 396.61730698999094 827.0394582598655 373.57860112214854L827.0394582598655 373.57860112214854Q827.0394582598655 350.3225489725341 820.2085751184567 338.1511571932967Q813.4087414458725 325.9487159452346 799.0949363177386 325.9487159452346L799.0949363177386 325.9487159452346Q784.7811311896047 325.9487159452346 778.0744459234943 338.24430559977037Q771.3677606573839 350.53989525430626 771.3677606573839 373.7959474039207L771.3677606573839 373.7959474039207Q771.3677606573839 396.834653271763 778.1986437987927 409.1302429262989Q784.9984774713769 421.42583258083465 799.3122825995107 421.42583258083465ZM1042.7711676530846 426.114302373347L993.8061553167134 426.114302373347L993.8061553167134 419.62496338900866Q1000.730186864596 419.62496338900866 1003.7419853405809 418.9729245436924Q1006.7848332853903 418.28983622955144 1007.6542184124786 415.8369281924093Q1008.5546530083916 413.384020155267 1008.5546530083916 408.0124620486137L1008.5546530083916 408.0124620486137L1008.5546530083916 353.67589160558936Q1008.5546530083916 346.7518600577068 1006.6606354100918 341.38030195105347Q1004.7666178117921 336.00874384440027 1000.6370384581223 332.90379696194174Q996.4764096356278 329.76780061065864 989.5523780877452 329.76780061065864L989.5523780877452 329.76780061065864Q983.0630391034069 329.76780061065864 978.0330251538242 332.5622528048713Q973.0030112042414 335.356704999084 969.0907781323435 339.8278285098242Q965.1785450604457 344.2989520205645 961.8252024273905 349.6705101272178L961.8252024273905 349.6705101272178L961.8252024273905 339.14474019568337Q968.3145414117289 329.9851468924307 977.4741347149816 324.5204403793037Q986.6647774870588 319.024684397352 999.1777134233666 319.024684397352L999.1777134233666 319.024684397352Q1013.4915185515006 319.024684397352 1020.4155500993832 326.8491505411476Q1027.3395816472657 334.67361668494306 1027.3395816472657 351.2229835684471L1027.3395816472657 351.2229835684471L1027.3395816472657 407.54672001624493Q1027.3395816472657 412.91827812289824 1028.1158183678804 415.4953840353389Q1028.892055088495 418.0724899477794 1032.24539772155 418.848726668394Q1035.5987403546055 419.62496338900866 1042.7711676530846 419.62496338900866L1042.7711676530846 419.62496338900866L1042.7711676530846 426.114302373347ZM915.5614938787584 426.114302373347L866.5964815423872 426.114302373347L866.5964815423872 419.62496338900866Q873.9862551226386 419.62496338900866 877.1222514739217 418.72452879309566Q880.2271983563802 417.85514366600734 881.0344845458194 415.2780377535667Q881.810721266434 412.7009318411262 881.810721266434 407.54672001624493L881.810721266434 407.54672001624493L881.810721266434 340.94560938750936Q881.810721266434 335.13935871731184 880.4755941069768 333.2142916501876Q879.1094174786951 331.3202740518879 875.3213822820957 331.3202740518879L875.3213822820957 331.3202740518879L867.7142624200723 331.3202740518879L867.7142624200723 324.6135887857774L894.1063109209699 320.14246527503707L900.1299078729394 320.14246527503707L900.1299078729394 336.2571395949969L900.8129961870802 336.2571395949969L900.8129961870802 408.0124620486137Q900.8129961870802 413.384020155267 901.7134307829933 415.8369281924093Q902.5828159100816 418.28983622955144 905.8430101366631 418.9729245436924Q909.07215489442 419.62496338900866 915.5614938787584 419.62496338900866L915.5614938787584 419.62496338900866L915.5614938787584 426.114302373347ZM978.8403113432634 426.114302373347L930.5273378522086 426.114302373347L930.5273378522086 419.62496338900866Q937.4824188689156 419.62496338900866 940.4942173449003 418.9729245436924Q943.5060158208851 418.28983622955144 944.4064504167982 415.8369281924093Q945.3068850127111 413.384020155267 945.3068850127111 408.0124620486137L945.3068850127111 408.0124620486137L945.3068850127111 353.67589160558936Q945.3068850127111 346.7518600577068 943.5060158208851 341.38030195105347Q941.7051466290593 336.00874384440027 937.4824188689156 332.90379696194174Q933.2286416399475 329.76780061065864 926.0562143414681 329.76780061065864L926.0562143414681 329.76780061065864Q919.8152711077265 329.76780061065864 914.7852571581436 332.43805492957296Q909.7552432085608 335.13935871731184 905.8430101366631 339.4862843527538Q901.9307770647654 343.83320998819573 898.5774344317101 348.987421813077L898.5774344317101 348.987421813077L898.5774344317101 338.71004763213915Q903.4832505059946 332.43805492957296 908.9790064879462 328.091129294131Q914.4437130010733 323.7131541898645 921.1503982671837 321.3844440280206Q927.8570835332941 319.024684397352 935.6815496770896 319.024684397352L935.6815496770896 319.024684397352Q945.3068850127111 319.024684397352 951.5478282464528 322.3780270304073Q957.819820949019 325.73136966346254 960.9558173003022 331.53762033365996Q964.0607641827607 337.37492047268205 964.0607641827607 344.73364458410873L964.0607641827607 344.73364458410873L964.0607641827607 407.54672001624493Q964.0607641827607 412.7009318411262 964.9611987786737 415.2780377535667Q965.8616333745867 417.85514366600734 968.8734318505715 418.72452879309566Q971.8852303265562 419.62496338900866 978.8403113432634 419.62496338900866L978.8403113432634 419.62496338900866L978.8403113432634 426.114302373347ZM1108.2544974041352 428.5672104104893L1108.2544974041352 428.5672104104893Q1083.9117138456604 428.5672104104893 1072.3923609117392 414.3776031576537Q1060.873007977818 400.18799590481825 1060.873007977818 374.91372828160576L1060.873007977818 374.91372828160576Q1060.873007977818 357.4949762710133 1066.1203682091727 344.9509908658808Q1071.3677284405278 332.43805492957296 1081.986646778536 325.73136966346254Q1092.6055651165443 319.024684397352 1108.5028931547317 319.024684397352L1108.5028931547317 319.024684397352Q1122.5683025322692 319.024684397352 1131.2932032719775 323.83735206516275Q1140.0181040116859 328.6500197329735 1144.7065738041983 336.56763428324274Q1149.3950435967108 344.5162983023367 1151.0717149132383 353.8932378873614Q1152.7483862297659 363.3012269412108 1152.7483862297659 372.67816652623554L1152.7483862297659 372.67816652623554L1152.7483862297659 374.6963819998336L1077.639721143094 374.6963819998336L1077.857067424866 367.55500417017896L1131.9762915861184 367.55500417017896Q1131.9762915861184 354.14163363795814 1129.833878237222 344.8578424594071Q1127.7225143571502 335.57405128085605 1122.6925004075674 330.7613836130453Q1117.6624864579846 325.9487159452346 1108.720239436504 325.9487159452346L1108.720239436504 325.9487159452346Q1099.3122503826546 325.9487159452346 1093.4128513059834 331.10292777011574Q1087.4824027604877 336.2571395949969 1084.6879505662748 346.1929696188643Q1081.8934983720624 356.1287996427316 1081.67615209029 370.6599510526375L1081.67615209029 370.6599510526375Q1081.67615209029 380.28528638825895 1082.8870813744488 389.0101871279675Q1084.1290601274322 397.735087867676 1087.5755511669613 404.65911941555856Q1091.053091675315 411.583150963441 1097.418232784355 415.6195819106371Q1103.783373893395 419.62496338900866 1114.0917975431573 419.62496338900866L1114.0917975431573 419.62496338900866Q1123.686083409954 419.62496338900866 1129.9580761125203 416.1784723494797Q1136.199019346262 412.7009318411262 1140.0181040116859 407.1120274527007Q1143.8061392082855 401.52312306427535 1145.8243546818835 395.71687239407794L1145.8243546818835 395.71687239407794L1151.847951633853 398.38712671299226Q1149.3950435967108 405.99424657501567 1144.5823759289 412.91827812289824Q1139.800757729914 419.8423096707807 1131.1690053966793 424.22028477504733Q1122.5683025322692 428.5672104104893 1108.2544974041352 428.5672104104893Z " fill="#c5fad5" transform="matrix(0.759055479987695,0,0,0.7590554799876953,0,31.622848686045558)"/></g></svg>